:version 1.10
:name ASF
:units
  mass 1
  length 1
  angle deg
:documentation
  ASF file generated by Kaydara
:root
  axis xyz
  order  tx ty tz rx ry rz
  position 0 0 0
  orientation 0 0 0
:bonedata
  begin
    id 1
    name abdomenDummy
    direction 1 -1.27917e-005 -1.26829e-007
    length 1.79048
    axis 0 0 0 xyz
  end
  begin
    id 2
    name abdomen
    direction 0.987238 0.159249 -9.68575e-008
    length 8.61378
    axis 2.73208e-005 5.54953e-006 9.16328 xyz
    dof rx ry rz
  end
  begin
    id 3
    name chest
    direction 0 0 0
    length 0
    axis 2.65071e-005 8.63688e-006 2.59796 xyz
    dof rx ry rz
  end
  begin
    id 4
    name neckDummyDummy
    direction 0.998972 0.0453274 -1.50742e-007
    length 9.56202
    axis 2.65071e-005 8.63688e-006 2.59796 xyz
  end
  begin
    id 5
    name neckDummy
    direction 0.99977 0.0214525 -1.61748e-007
    length 1.93574
    axis 2.62932e-005 9.26758e-006 1.22924 xyz
    dof rx ry rz
  end
  begin
    id 6
    name neck
    direction 0.99928 -0.0379406 -1.88707e-007
    length 3.70367
    axis 2.56966e-005 1.08122e-005 -2.17436 xyz
    dof rx ry rz
  end
  begin
    id 7
    name head
    direction 0.992648 -0.121037 -2.25408e-007
    length 6.35158
    axis 2.47068e-005 1.29149e-005 -6.95196 xyz
    dof rx ry rz
  end
  begin
    id 8
    name figureHair
    direction -0.86681 -0.498639 -7.83376e-008
    length 8.29884
    axis -2.7515e-005 4.48842e-006 -150.09 xyz
    dof rx ry rz
  end
  begin
    id 9
    name lCollarDummy
    direction 0.994611 0.0451299 -0.0933417
    length 9.60395
    axis 2.65071e-005 8.63688e-006 2.59796 xyz
  end
  begin
    id 10
    name lCollar
    direction 0.0384146 0.00127577 -0.999261
    length 6.95318
    axis 90.4899 87.7973 1.90202 xyz
    dof rx ry rz
  end
  begin
    id 11
    name lShldr
    direction -0.030648 0.0920515 -0.995282
    length 9.61158
    axis -161.793 84.4324 108.415 xyz
    dof rx ry rz
  end
  begin
    id 12
    name lForeArm
    direction 0.000163956 -0.0977586 -0.99521
    length 8.6068
    axis 0.134773 84.3899 -89.8525 xyz
    dof rx ry rz
  end
  begin
    id 13
    name lHand
    direction -0.0190533 -0.1444 -0.989336
    length 7.61479
    axis -7.3729 81.6249 -97.517 xyz
    dof rx ry rz
  end
  begin
    id 14
    name rCollarDummy
    direction 0.994871 0.0442627 0.0909555
    length 9.60761
    axis 2.65071e-005 8.63688e-006 2.59796 xyz
  end
  begin
    id 15
    name rCollar
    direction 0.0334251 -4.74072e-007 0.999441
    length 6.97058
    axis -178.152 -88.0845 -0.000674207 xyz
    dof rx ry rz
  end
  begin
    id 16
    name rShldr
    direction -0.026922 0.0719509 0.997045
    length 9.60913
    axis 71.2822 -85.594 110.514 xyz
    dof rx ry rz
  end
  begin
    id 17
    name rForeArm
    direction 0.00134679 -0.118986 0.992895
    length 8.57176
    axis -88.7923 -83.1659 -89.3516 xyz
    dof rx ry rz
  end
  begin
    id 18
    name rHand
    direction -0.0185183 -0.0768601 0.99687
    length 7.69687
    axis -74.5596 -85.4655 -103.546 xyz
    dof rx ry rz
  end
  begin
    id 19
    name lThighDummy
    direction -0.236086 -0.0385456 -0.970967
    length 4.99155
    axis 0 0 0 xyz
  end
  begin
    id 20
    name lThigh
    direction -0.993968 0.0148998 -0.108653
    length 13.572
    axis -91.4001 6.23768 179.141 xyz
    dof rx ry rz
  end
  begin
    id 21
    name lShin
    direction -0.992341 0.0904576 -0.0841193
    length 18.5862
    axis -91.4558 4.82538 174.792 xyz
    dof rx ry rz
  end
  begin
    id 22
    name lFoot
    direction 0.0209381 -0.999771 -0.00453005
    length 8.44474
    axis 4.86759 0.259522 -88.8001 xyz
    dof rx ry rz
  end
  begin
    id 23
    name rThighDummy
    direction -0.236086 -0.0385456 0.970967
    length 4.99155
    axis 0 0 0 xyz
  end
  begin
    id 24
    name rThigh
    direction -0.993968 0.0148995 0.108653
    length 13.5721
    axis -89.7059 -6.2377 179.141 xyz
    dof rx ry rz
  end
  begin
    id 25
    name rShin
    direction -0.9925 0.0899962 0.0827255
    length 18.6716
    axis -89.2745 -4.74775 174.819 xyz
    dof rx ry rz
  end
  begin
    id 26
    name rFoot
    direction 0.0301721 -0.999545 9.70865e-005
    length 8.45013
    axis -2.50066e-005 -0.00555246 -88.271 xyz
    dof rx ry rz
  end
:hierarchy
  begin
    root abdomenDummy lThighDummy rThighDummy
    abdomenDummy abdomen
    abdomen chest
    chest neckDummyDummy lCollarDummy rCollarDummy
    neckDummyDummy neckDummy
    neckDummy neck
    neck head
    head figureHair
    lCollarDummy lCollar
    lCollar lShldr
    lShldr lForeArm
    lForeArm lHand
    rCollarDummy rCollar
    rCollar rShldr
    rShldr rForeArm
    rForeArm rHand
    lThighDummy lThigh
    lThigh lShin
    lShin lFoot
    rThighDummy rThigh
    rThigh rShin
    rShin rFoot
  end

:SAMPLES-PER-SECOND 25
:FULLY-SPECIFIED
:DEGREES
1457
root  5.61681 37.3693 3.21699 179.655 -12.4672 74.2531
abdomen  -0.772785 -0.763594 -26.1341
chest  -2.49281 -6.75921 -0.207504
neckDummy  9.09964e-021 0 8.72668e-016
neck  5.04451 8.36369 3.8228
head  2.61828 -7.52817 -13.3474
figureHair  0 1.51661e-021 -9.5315e-016
lCollar  -5.15695e-016 -6.42944e-016 -7.59357e-014
lShldr  6.50087 7.19383 -72.3427
lForeArm  25.7742 -34.1352 0.0291323
lHand  0.254698 0.195082 5.2986
rCollar  1.7976e-016 -5.12864e-014 1.62755e-015
rShldr  -54.1811 65.2018 -43.7513
rForeArm  -7.97325 3.75853 12.2556
rHand  -0.0512066 -16.4911 4.68331
lThigh  -11.9153 4.44677 4.25653
lShin  -10.3026 14.1591 -2.66762
lFoot  12.6584 -1.63139 1.9084
rThigh  18.961 -58.4147 -8.97308
rShin  0.891496 48.9952 -2.23733
rFoot  8.12269 -1.25166 -23.9885
1458
root  5.60563 37.3743 3.27028 179.873 -12.448 75.9543
abdomen  -0.462787 -1.20536 -23.1266
chest  -2.05692 -6.28709 -0.590933
neckDummy  9.09964e-021 0 8.72668e-016
neck  4.30317 7.95223 3.24465
head  2.09517 -7.88695 -13.2717
figureHair  0 1.51661e-021 -9.5315e-016
lCollar  -5.15695e-016 -6.42944e-016 -7.59357e-014
lShldr  6.87829 7.6156 -72.3928
lForeArm  26.687 -34.0446 0.0243331
lHand  0.254698 0.195082 5.2986
rCollar  1.7976e-016 -5.12864e-014 1.62755e-015
rShldr  -55.7038 65.1753 -44.8353
rForeArm  -2.85751 2.17426 15.069
rHand  -0.0796366 -16.9058 4.86027
lThigh  -11.5382 2.50585 4.04986
lShin  -10.3367 14.2539 -2.56043
lFoot  12.8231 -1.65549 1.92033
rThigh  14.4601 -57.036 -6.08493
rShin  -1.30468 54.9524 -2.41948
rFoot  11.45 -0.930192 -25.4525
1459
root  5.57695 37.3504 3.36425 179.833 -11.9274 77.4595
abdomen  -0.0261831 -1.1505 -20.0563
chest  -1.44236 -5.92811 -1.47136
neckDummy  9.09964e-021 0 8.72668e-016
neck  3.67991 7.94561 2.72961
head  1.5624 -8.54419 -13.1198
figureHair  0 1.51661e-021 -9.5315e-016
lCollar  -5.15695e-016 -6.42944e-016 -7.59357e-014
lShldr  7.3261 7.84817 -72.4489
lForeArm  27.5139 -33.6813 0.00501538
lHand  0.254698 0.195082 5.2986
rCollar  1.7976e-016 -5.12864e-014 1.62755e-015
rShldr  -54.869 65.5296 -42.7614
rForeArm  -1.00791 1.31468 17.4718
rHand  -0.0610467 -17.5055 4.75405
lThigh  -10.8115 1.09855 3.28664
lShin  -10.9359 13.8729 -2.7211
lFoot  13.0421 -1.67985 1.88472
rThigh  9.38118 -53.5678 -2.7114
rShin  -3.34406 56.2529 -2.48181
rFoot  12.2557 -0.852034 -25.2087
1460
root  5.52585 37.2154 3.44148 179.809 -10.8689 78.2916
abdomen  0.349561 -0.408101 -18.2878
chest  -0.801181 -5.44992 -1.48592
neckDummy  9.09964e-021 0 8.72668e-016
neck  2.96585 7.89563 1.38617
head  0.985127 -9.14229 -12.6474
figureHair  0 1.51661e-021 -9.5315e-016
lCollar  -5.15695e-016 -6.42944e-016 -7.59357e-014
lShldr  7.6662 8.48192 -72.3614
lForeArm  27.4039 -33.2202 -0.0192506
lHand  0.254698 0.195082 5.2986
rCollar  1.7976e-016 -5.12864e-014 1.62755e-015
rShldr  -52.2609 65.9531 -38.9112
rForeArm  -1.94245 1.07692 19.6812
rHand  -0.0373609 -17.8844 4.62166
lThigh  -10.2248 -0.0501291 2.05287
lShin  -11.5261 14.5339 -2.90743
lFoot  13.1661 -1.75823 2.40657
rThigh  6.28632 -47.0032 -1.0038
rShin  -2.5628 52.5025 -2.33535
rFoot  12.2161 -0.845175 -25.6553
1461
root  5.48205 37.0307 3.51465 179.668 -9.87511 79.1502
abdomen  0.769739 -0.22657 -16.5964
chest  -0.0627638 -4.31656 -1.4014
neckDummy  9.09964e-021 0 8.72668e-016
neck  2.02251 7.70846 -0.342413
head  0.239316 -9.60367 -12.2011
figureHair  0 1.51661e-021 -9.5315e-016
lCollar  -5.15695e-016 -6.42944e-016 -7.59357e-014
lShldr  7.75642 9.20103 -71.9952
lForeArm  26.9344 -32.7596 -0.0432202
lHand  0.254698 0.195082 5.2986
rCollar  1.7976e-016 -5.12864e-014 1.62755e-015
rShldr  -48.3999 66.4112 -35.1637
rForeArm  -3.21434 1.06773 22.236
rHand  -0.0625074 -18.0079 4.76615
lThigh  -10.2331 -1.73378 0.916787
lShin  -11.9684 16.0546 -2.95927
lFoot  13.6461 -1.93158 3.30792
rThigh  4.52077 -39.3659 -0.0609729
rShin  0.0153598 45.5547 -2.12082
rFoot  11.5464 -0.921512 -25.2759
1462
root  5.44539 36.9001 3.63646 178.927 -9.20143 80.7315
abdomen  1.44759 -1.21341 -13.8148
chest  1.00887 -2.46959 -1.96299
neckDummy  9.09964e-021 0 8.72668e-016
neck  0.986328 7.71403 -2.03248
head  -0.618668 -10.0924 -12.2478
figureHair  0 1.51661e-021 -9.5315e-016
lCollar  -5.15695e-016 -6.42944e-016 -7.59357e-014
lShldr  7.6355 9.63505 -71.5361
lForeArm  26.7977 -32.2057 -0.0717239
lHand  0.254698 0.195082 5.2986
rCollar  1.7976e-016 -5.12864e-014 1.62755e-015
rShldr  -44.3742 66.7431 -32.4256
rForeArm  -3.35119 1.02806 25.426
rHand  -0.102572 -18.5491 4.99122
lThigh  -10.4452 -3.66014 -0.0492295
lShin  -12.7917 16.8735 -3.08331
lFoot  14.3582 -2.11876 3.96763
rThigh  2.4962 -33.5378 1.17369
rShin  0.784332 39.3263 -1.99378
rFoot  9.67492 -1.11714 -22.7205
1463
root  5.41474 36.8206 3.79585 177.505 -8.65706 82.602
abdomen  2.30249 -2.90061 -11.1112
chest  2.34177 -0.279629 -2.20391
neckDummy  9.09964e-021 0 8.72668e-016
neck  0.194221 8.21957 -3.87803
head  -1.31232 -10.9161 -12.6217
figureHair  0 1.51661e-021 -9.5315e-016
lCollar  -5.15695e-016 -6.42944e-016 -7.59357e-014
lShldr  7.13948 10.1913 -71.3282
lForeArm  26.5095 -31.6178 -0.101622
lHand  0.254698 0.195082 5.2986
rCollar  1.7976e-016 -5.12864e-014 1.62755e-015
rShldr  -40.8902 66.6489 -29.9083
rForeArm  -2.45777 0.982342 28.8552
rHand  -0.12955 -19.5173 5.13153
lThigh  -10.747 -5.35524 -0.728128
lShin  -13.9612 17.0268 -3.57555
lFoot  14.4776 -2.19675 4.43018
rThigh  1.45885 -29.9751 1.99747
rShin  -0.145911 35.7237 -1.93056
rFoot  8.5756 -1.1853 -20.2018
1464
root  5.43787 36.8123 3.92814 176.267 -8.48355 84.6065
abdomen  2.82917 -3.95667 -9.39008
chest  3.13449 0.744816 -1.43524
neckDummy  9.09964e-021 0 8.72668e-016
neck  -0.271432 8.64047 -5.72856
head  -1.6542 -11.729 -13.02
figureHair  0 1.51661e-021 -9.5315e-016
lCollar  -5.15695e-016 -6.42944e-016 -7.59357e-014
lShldr  5.82874 11.4712 -71.6045
lForeArm  25.8232 -31.2488 -0.120145
lHand  0.254698 0.195082 5.2986
rCollar  1.7976e-016 -5.12864e-014 1.62755e-015
rShldr  -37.0656 66.244 -25.6379
rForeArm  -2.42729 0.944478 31.4968
rHand  -0.118472 -19.8383 5.06964
lThigh  -11.181 -6.96 -0.65184
lShin  -14.5887 16.7539 -4.32873
lFoot  14.0518 -2.14809 4.56047
rThigh  3.50636 -28.4389 1.9192
rShin  -0.432286 35.5146 -1.92603
rFoot  8.91746 -1.16128 -19.3258
1465
root  5.54821 36.9311 3.97341 176.123 -8.77654 86.6818
abdomen  2.72126 -3.03443 -8.19592
chest  2.75129 -0.691325 -0.313194
neckDummy  9.09964e-021 0 8.72668e-016
neck  -0.76536 7.76335 -6.79707
head  -1.81665 -11.6731 -13.5247
figureHair  0 1.51661e-021 -9.5315e-016
lCollar  -5.15695e-016 -6.42944e-016 -7.59357e-014
lShldr  4.15138 12.9269 -72.1843
lForeArm  25.3783 -30.7615 -0.144373
lHand  0.254698 0.195082 5.2986
rCollar  1.7976e-016 -5.12864e-014 1.62755e-015
rShldr  -32.2536 65.8586 -20.1322
rForeArm  -4.82851 0.916539 33.3713
rHand  -0.0689603 -19.4597 4.81227
lThigh  -11.1773 -8.42422 0.0750742
lShin  -14.2643 15.4265 -4.927
lFoot  13.3103 -1.96377 3.97394
rThigh  6.91007 -28.1503 1.50187
rShin  0.109071 37.9477 -1.97419
rFoot  9.36098 -1.13982 -19.3893
1466
root  5.7131 37.1241 3.90292 177.207 -9.40953 88.3687
abdomen  2.25748 -0.223479 -7.70795
chest  1.53963 -3.89318 0.453848
neckDummy  9.09964e-021 0 8.72668e-016
neck  -1.49251 5.33703 -6.44906
head  -2.0012 -10.7995 -14.1061
figureHair  0 1.51661e-021 -9.5315e-016
lCollar  -5.15695e-016 -6.42944e-016 -7.59357e-014
lShldr  3.48466 13.4629 -72.4688
lForeArm  25.3144 -29.7989 -0.191673
lHand  0.254698 0.195082 5.2986
rCollar  1.7976e-016 -5.12864e-014 1.62755e-015
rShldr  -27.7539 65.4947 -16.3525
rForeArm  -7.53426 0.878944 35.8589
rHand  -0.086762 -19.8073 4.90287
lThigh  -10.7266 -9.37825 1.10165
lShin  -13.0881 13.422 -5.19992
lFoot  11.4629 -1.59577 3.07469
rThigh  8.95592 -28.3422 1.12745
rShin  -0.519406 42.3043 -2.07218
rFoot  10.0347 -1.10577 -19.5876
1467
root  5.8917 37.3554 3.74378 179.126 -10.4953 89.5027
abdomen  1.6225 3.11553 -8.19687
chest  0.00317753 -7.66685 0.963468
neckDummy  9.09964e-021 0 8.72668e-016
neck  -2.31416 2.34335 -4.99344
head  -2.18624 -9.95442 -14.4849
figureHair  0 1.51661e-021 -9.5315e-016
lCollar  -5.15695e-016 -6.42944e-016 -7.59357e-014
lShldr  4.2779 13.1717 -72.1538
lForeArm  25.3089 -28.9996 -0.2303
lHand  0.254698 0.195082 5.2986
rCollar  1.7976e-016 -5.12864e-014 1.62755e-015
rShldr  -25.1335 64.7675 -15.3297
rForeArm  -7.70989 0.821876 39.4702
rHand  -0.191944 -21.0978 5.42277
lThigh  -10.5677 -9.84352 2.57513
lShin  -10.8938 11.1904 -5.20819
lFoot  9.01303 -1.16238 1.93769
rThigh  10.1865 -29.416 0.679531
rShin  -1.57296 50.2534 -2.28184
rFoot  11.2946 -1.04305 -19.4379
1468
root  6.06239 37.6176 3.54946 -178.382 -12.1811 90.7555
abdomen  0.740273 6.0075 -8.91645
chest  -1.76309 -11.4995 1.71653
neckDummy  9.09964e-021 0 8.72668e-016
neck  -3.1995 -0.181242 -3.68431
head  -2.47212 -9.62343 -14.548
figureHair  0 1.51661e-021 -9.5315e-016
lCollar  -5.15695e-016 -6.42944e-016 -7.59357e-014
lShldr  5.47526 12.7787 -71.5497
lForeArm  25.7207 -28.9381 -0.233254
lHand  0.254698 0.195082 5.2986
rCollar  1.7976e-016 -5.12864e-014 1.62755e-015
rShldr  -24.3613 63.3043 -15.8273
rForeArm  -6.89572 0.76261 43.0124
rHand  -0.248762 -21.9373 5.6747
lThigh  -10.7688 -10.7385 4.26152
lShin  -7.94996 8.86987 -4.81843
lFoot  8.08295 -0.919676 0.1206
rThigh  12.2503 -31.8551 -0.366098
rShin  -1.53172 62.6598 -3.22841
rFoot  12.2587 -0.979105 -20.1336
1469
root  6.21006 37.8795 3.37422 -176.145 -14.2919 92.3689
abdomen  -0.0241128 7.5663 -9.19172
chest  -3.19844 -14.4188 2.82041
neckDummy  9.09964e-021 0 8.72668e-016
neck  -4.24918 -1.74263 -3.23387
head  -3.07216 -10.0253 -14.5901
figureHair  0 1.51661e-021 -9.5315e-016
lCollar  -5.15695e-016 -6.42944e-016 -7.59357e-014
lShldr  6.15313 12.2551 -70.8353
lForeArm  26.7033 -29.424 -0.209977
lHand  0.254698 0.195082 5.2986
rCollar  1.7976e-016 -5.12864e-014 1.62755e-015
rShldr  -24.4844 61.1708 -17.3131
rForeArm  -7.42765 0.718194 45.5434
rHand  -0.19509 -21.9084 5.42049
lThigh  -10.9195 -12.4753 5.78417
lShin  -5.38263 6.81141 -4.0102
lFoot  8.78091 -0.83152 -2.01142
rThigh  14.5027 -34.9801 -2.01859
rShin  1.58919 77.0817 -1.64668
rFoot  12.0603 -0.936394 -22.4471
